<?xml version="1.0" encoding="utf-8"?>
<!-- Generator: Adobe Illustrator 22.1.0, SVG Export Plug-In . SVG Version: 6.00 Build 0)  -->
<svg version="1.1" id="Layer_1" xmlns="http://www.w3.org/2000/svg" xmlns:xlink="http://www.w3.org/1999/xlink" x="0px" y="0px"
	 viewBox="0 0 60 60" style="enable-background:new 0 0 60 60;" xml:space="preserve">
<style type="text/css">
	.st0{display:none;fill:#ED1C24;}
	.st1{fill:#FFFFFF;}
	.st2{fill-rule:evenodd;clip-rule:evenodd;fill:#FFFFFF;}
	.st3{clip-path:url(#SVGID_2_);fill:#FFFFFF;}
	.st4{clip-path:url(#SVGID_2_);fill:#EA2128;}
	.st5{clip-path:url(#SVGID_4_);fill:#FFFFFF;}
	.st6{clip-path:url(#SVGID_4_);fill:#EA2128;}
	.st7{fill:#53964B;}
	.st8{fill:#ED1C24;}
	.st9{fill:#7F7F7F;}
	.st10{fill:#FFFFFF;stroke:#FFFFFF;stroke-width:0.25;stroke-miterlimit:10;}
	.st11{fill:#FFFFFF;stroke:#FFFFFF;stroke-width:0.5;stroke-linecap:round;}
	.st12{clip-path:url(#SVGID_6_);}
	.st13{fill:#EA2128;}
	.st14{fill:none;stroke:#ED1C24;stroke-width:3;stroke-linecap:round;}
	.st15{fill:none;stroke:#7F7F7F;stroke-width:3;stroke-linecap:round;}
	.st16{fill:none;stroke:#ED1C24;stroke-width:3;stroke-miterlimit:10;}
	.st17{fill:none;stroke:#ED1C24;stroke-width:0.75;stroke-miterlimit:10;}
	.st18{fill:none;stroke:#ED1C24;stroke-width:1.6;stroke-miterlimit:10;}
	.st19{fill:none;stroke:#7F7F7F;stroke-width:3;stroke-miterlimit:10;}
	.st20{fill:none;stroke:#7F7F7F;stroke-width:0.75;stroke-miterlimit:10;}
	.st21{fill:none;stroke:#7F7F7F;stroke-width:1.6;stroke-miterlimit:10;}
	.st22{fill:#EC2127;}
	.st23{fill-rule:evenodd;clip-rule:evenodd;fill:none;stroke:#FFFFFF;stroke-miterlimit:10;}
	.st24{fill:none;stroke:#ED1C24;stroke-width:2.6;stroke-miterlimit:10;}
	.st25{fill:none;stroke:#7F7F7F;stroke-width:2.6;stroke-miterlimit:10;}
	.st26{fill:none;stroke:#FFFFFF;stroke-width:3;stroke-linecap:round;stroke-linejoin:round;stroke-miterlimit:10;}
	.st27{fill:#F5F6F6;}
</style>
<g>
	<g>
		<path class="st1" d="M27.8,20.4c0,0.4-0.1,0.7-0.6,2l-5.6,12.5c-0.5,1-0.8,1.6-1.9,1.6c-1.1,0-1.5-0.6-2-1.6l-5.5-12.5
			c-0.5-1.2-0.6-1.6-0.6-2c0-1.2,1-2.3,2.3-2.3c0.9,0,1.8,0.5,2.1,1.4l3.7,9.5l3.8-9.5c0.4-0.9,1.2-1.4,2.1-1.4
			C26.8,18.1,27.8,19.2,27.8,20.4z"/>
		<path class="st1" d="M29,35.6l0-15.1c0-1.1,0.9-2.1,2.1-2.1c1.1,0,2.1,0.9,2.1,2.1l0,15.1c0,0.5-0.3,0.9-0.9,0.9l-2.4,0
			C29.4,36.4,29,36.1,29,35.6z"/>
		<path class="st1" d="M48.6,24.6c0,3.9-2.6,6.4-6.3,6.4l-3.4,0l0,4.6c0,0.5-0.3,0.9-0.9,0.9l-2.4,0c-0.5,0-0.9-0.3-0.9-0.9l0-15.1
			c0-1.1,0.9-2.1,2.1-2.1l5.4,0C45.9,18.4,48.6,21,48.6,24.6z M44.5,24.7c0-1.4-1.1-2.5-2.5-2.5l-3.1,0l0,5l3.1,0
			C43.4,27.2,44.5,26.1,44.5,24.7z"/>
	</g>
	<path class="st2" d="M37.8,49.2C47.2,45.9,54,37,54,26.5c0-6.5-2.6-12.3-6.7-16.6l0,0c4.6,4.5,7.5,10.7,7.5,17.7
		c0,10.7-6.8,19.8-16.3,23.3L37.8,49.2z M39.1,51.2L39.1,51.2c-0.5,0.4,0.7,1.3,2,2.1c1.6,1,2.6-0.1,3.8-0.2
		c-0.8-0.7-0.9-1.8-2.1-2.2C41.3,50.5,38.9,50.6,39.1,51.2L39.1,51.2z M43,49.3L43,49.3c-0.4,0.5,0.9,1.1,2.2,1.7
		c1.6,0.7,2.3-0.5,3.5-0.8c-0.9-0.5-1.1-1.5-2.3-1.7C44.9,48.3,42.7,48.8,43,49.3L43,49.3z M46.8,46.8L46.8,46.8
		c-0.4,0.4,0.8,1,2.1,1.5c1.5,0.6,2.2-0.5,3.2-0.7c-0.8-0.4-1.1-1.4-2.1-1.6C48.5,45.9,46.5,46.3,46.8,46.8L46.8,46.8z M49.1,44.3
		L49.1,44.3c-0.3,0.5,0.9,0.9,2.3,1.2c1.6,0.4,2.1-0.8,3.1-1.2c-0.9-0.3-1.2-1.2-2.3-1.3C50.7,43.1,48.7,43.9,49.1,44.3L49.1,44.3z
		 M51.1,41.4L51.1,41.4c-0.2,0.5,1,0.7,2.2,0.8c1.5,0.2,1.8-1,2.7-1.5c-0.9-0.2-1.3-1-2.3-0.8C52.4,40.2,50.7,41.1,51.1,41.4
		L51.1,41.4z M52.5,38.6L52.5,38.6c-0.2,0.5,1,0.5,2.1,0.5c1.4,0,1.5-1.1,2.3-1.7c-0.8-0.1-1.3-0.7-2.2-0.5
		C53.6,37.3,52.1,38.3,52.5,38.6L52.5,38.6z M54,35.6L54,35.6c-0.1,0.5,1,0.4,2.2,0.2c1.4-0.2,1.4-1.3,2-1.9c-0.8,0-1.4-0.6-2.2-0.2
		C54.9,34.1,53.6,35.3,54,35.6L54,35.6z M54.6,32.6L54.6,32.6c0,0.5,1.1,0.3,2.2-0.1c1.3-0.4,1.2-1.5,1.8-2.2
		c-0.8,0.1-1.4-0.4-2.2,0.1C55.3,31.1,54.2,32.4,54.6,32.6L54.6,32.6z M55.2,29L55.2,29c0,0.5,1,0.2,2.1-0.1
		c1.3-0.3,1.1-1.4,1.7-2.1c-0.8,0.1-1.4-0.4-2.1,0.1C55.9,27.5,54.8,28.8,55.2,29L55.2,29z M55.2,25.7L55.2,25.7c0,0.5,1,0.2,2-0.1
		c1.2-0.3,1.1-1.3,1.6-2c-0.7,0.1-1.3-0.3-2.1,0.1C55.8,24.3,54.8,25.5,55.2,25.7L55.2,25.7z M54.8,23.4L54.8,23.4
		c0.1,0.5,1,0,2-0.5c1.1-0.6,0.8-1.5,1.2-2.3c-0.7,0.3-1.4-0.1-2,0.5C55.1,21.8,54.3,23.3,54.8,23.4L54.8,23.4z M54.3,20.4
		L54.3,20.4c0.1,0.4,1-0.1,1.9-0.8c1-0.7,0.6-1.6,0.8-2.5c-0.6,0.4-1.4,0.1-1.9,0.8C54.3,18.8,53.8,20.4,54.3,20.4L54.3,20.4z
		 M53.4,17.5L53.4,17.5c0.2,0.4,1-0.3,1.7-1.1c0.9-0.9,0.2-1.7,0.3-2.6c-0.5,0.5-1.3,0.4-1.7,1.1C53.2,15.9,53,17.6,53.4,17.5
		L53.4,17.5z M52.3,14.9L52.3,14.9c0.3,0.3,0.9-0.5,1.4-1.5c0.6-1.1-0.2-1.7-0.3-2.6c-0.4,0.6-1.2,0.7-1.4,1.5
		C51.8,13.5,51.9,15.1,52.3,14.9L52.3,14.9z M50.7,12.7L50.7,12.7c0.4,0.2,0.7-0.7,0.9-1.6c0.3-1.1-0.5-1.5-0.8-2.3
		c-0.2,0.6-0.9,0.9-0.9,1.7C49.9,11.6,50.4,13,50.7,12.7L50.7,12.7z M48.8,10.3L48.8,10.3c0.4,0.1,0.4-0.7,0.5-1.6
		c0-1-0.8-1.2-1.2-1.8c-0.1,0.6-0.6,1-0.5,1.6C47.8,9.5,48.6,10.6,48.8,10.3L48.8,10.3z M38.2,48.3L38.2,48.3
		c0.4,0.4,1.1-0.6,1.7-1.7c0.8-1.3-0.1-2.1-0.2-3.2c-0.5,0.7-1.5,0.8-1.8,1.8C37.5,46.5,37.7,48.5,38.2,48.3L38.2,48.3z M41.5,46.8
		L41.5,46.8c0.4,0.4,1.1-0.6,1.7-1.7c0.8-1.3-0.1-2.1-0.2-3.2c-0.5,0.7-1.5,0.8-1.8,1.8C40.8,45,41,46.9,41.5,46.8L41.5,46.8z
		 M45,44.1L45,44.1c0.4,0.4,1-0.7,1.5-1.9c0.6-1.4-0.4-2-0.6-3c-0.4,0.8-1.3,0.9-1.5,1.9C44.2,42.4,44.6,44.3,45,44.1L45,44.1z
		 M48.5,40.6L48.5,40.6c0.5,0.3,0.8-0.9,1-2c0.3-1.4-0.7-1.8-1.1-2.7c-0.3,0.8-1.1,1.1-1,2.1C47.4,39.2,48.1,40.9,48.5,40.6
		L48.5,40.6z M50.9,37.1L50.9,37.1c0.4,0.2,0.6-0.9,0.7-2c0.1-1.3-0.9-1.6-1.3-2.3c-0.1,0.7-0.8,1.2-0.7,2
		C49.7,36,50.6,37.4,50.9,37.1L50.9,37.1z M52.4,33.4L52.4,33.4c0.4,0.1,0.4-0.9,0.3-1.9c-0.1-1.2-1-1.3-1.6-1.9
		c0,0.7-0.6,1.2-0.3,1.9C51.2,32.6,52.2,33.8,52.4,33.4L52.4,33.4z M53.3,30L53.3,30c0.4,0,0.3-0.9,0-1.8c-0.2-1.1-1.2-1.1-1.7-1.6
		c0.1,0.7-0.4,1.2,0,1.9C52,29.3,53.1,30.3,53.3,30L53.3,30z M53.3,26.6L53.3,26.6c0.4,0,0.2-0.9-0.1-1.7c-0.3-1-1.2-0.9-1.8-1.3
		c0.1,0.6-0.3,1.2,0.1,1.8C52.1,26.1,53.2,26.9,53.3,26.6L53.3,26.6z M53,23L53,23c0.4,0,0.1-0.9-0.3-1.7c-0.5-1-1.3-0.7-1.9-1.1
		c0.2,0.6-0.1,1.2,0.4,1.7C51.7,22.7,52.9,23.4,53,23L53,23z M52.5,19.9L52.5,19.9c0.4-0.1,0-0.8-0.5-1.6c-0.5-0.9-1.3-0.6-2-0.8
		c0.3,0.5,0,1.1,0.5,1.6C51.2,19.7,52.5,20.3,52.5,19.9L52.5,19.9z M51.3,16.9L51.3,16.9c0.3-0.1-0.2-0.8-0.7-1.4
		c-0.6-0.8-1.3-0.3-1.9-0.5c0.3,0.5,0.2,1.1,0.7,1.4C50.1,16.9,51.4,17.2,51.3,16.9L51.3,16.9z M50,14.4L50,14.4
		c0.3-0.2-0.2-0.7-0.8-1.2c-0.7-0.6-1.3-0.2-1.9-0.2c0.4,0.4,0.3,1,0.9,1.3C48.8,14.6,50,14.7,50,14.4L50,14.4z M48.6,12L48.6,12
		c0.3-0.2-0.4-0.7-1-1.1c-0.8-0.5-1.3,0.1-1.9,0.1c0.4,0.3,0.5,0.9,1.1,1.1C47.5,12.4,48.7,12.3,48.6,12L48.6,12z M46.4,10L46.4,10
		c0.2-0.2-0.3-0.6-0.9-1c-0.7-0.5-1.1,0.1-1.7,0.1c0.4,0.3,0.4,0.8,0.9,1C45.4,10.3,46.5,10.3,46.4,10L46.4,10z M46.4,8.6L46.4,8.6
		c-0.1,0.3-0.9-0.4-1.3-1.1c-0.3-0.5,0.1-0.9,0-1.4c0.4,0.4,1.1,0.3,1.3,1.1C46.6,8,46.7,8.6,46.4,8.6L46.4,8.6z M44.5,7.9L44.5,7.9
		c0.3-0.2-0.4-0.7-1-1.1c-0.8-0.5-1.3,0.1-1.9,0.1C42,7.2,42,7.8,42.6,8C43.4,8.2,44.6,8.2,44.5,7.9L44.5,7.9z M21.6,50.9
		C12.1,47.4,5.3,38.3,5.3,27.6c0-6.9,2.9-13.2,7.5-17.7l0,0C8.6,14.2,6,20.1,6,26.6C6,37.1,12.8,46,22.2,49.3L21.6,50.9z M20.9,51.2
		c0.2-0.6-2.2-0.7-3.7-0.2c-1.2,0.4-1.2,1.5-2.1,2.2c1.2,0.1,2.2,1.2,3.8,0.2C20.2,52.6,21.4,51.7,20.9,51.2L20.9,51.2L20.9,51.2z
		 M17,49.4c0.3-0.5-1.9-1-3.4-0.8c-1.2,0.2-1.4,1.2-2.3,1.7c1.1,0.3,1.9,1.5,3.5,0.8C16.1,50.5,17.4,49.9,17,49.4L17,49.4L17,49.4z
		 M13.2,46.9c0.3-0.5-1.7-0.9-3.2-0.8C9,46.3,8.8,47.2,8,47.7c1.1,0.3,1.7,1.4,3.2,0.7C12.4,47.9,13.6,47.3,13.2,46.9L13.2,46.9
		L13.2,46.9z M10.9,44.4c0.3-0.4-1.6-1.2-3-1.2c-1.1,0-1.4,0.9-2.3,1.3c1,0.4,1.5,1.6,3.1,1.2C10,45.3,11.3,44.9,10.9,44.4
		L10.9,44.4L10.9,44.4z M8.9,41.5c0.4-0.4-1.3-1.3-2.6-1.5c-1-0.1-1.5,0.7-2.3,0.8c0.9,0.5,1.2,1.7,2.7,1.5
		C7.9,42.2,9.2,42,8.9,41.5L8.9,41.5L8.9,41.5z M7.5,38.7c0.4-0.3-1-1.3-2.2-1.7c-0.9-0.2-1.4,0.4-2.2,0.5C3.8,38,4,39.1,5.4,39.1
		C6.5,39.2,7.6,39.1,7.5,38.7L7.5,38.7L7.5,38.7z M6,35.6c0.4-0.2-0.9-1.4-2-1.9c-0.8-0.4-1.4,0.2-2.2,0.2c0.7,0.6,0.7,1.7,2,1.9
		C4.9,36,6.1,36.1,6,35.6L6,35.6L6,35.6z M5.4,32.7c0.4-0.2-0.7-1.5-1.7-2.2c-0.8-0.5-1.5,0.1-2.2-0.1c0.6,0.7,0.4,1.8,1.8,2.2
		C4.3,32.9,5.4,33.2,5.4,32.7L5.4,32.7L5.4,32.7z M4.8,29.1c0.4-0.2-0.6-1.5-1.6-2.1C2.4,26.5,1.8,27,1,26.9
		c0.5,0.7,0.4,1.8,1.7,2.1C3.8,29.3,4.8,29.6,4.8,29.1L4.8,29.1L4.8,29.1z M4.8,25.8c0.4-0.2-0.6-1.4-1.6-2
		c-0.7-0.4-1.3,0.1-2.1-0.1c0.5,0.7,0.4,1.7,1.6,2C3.8,26,4.8,26.2,4.8,25.8L4.8,25.8L4.8,25.8z M5.2,23.4c0.4-0.1-0.3-1.5-1.1-2.3
		c-0.6-0.6-1.3-0.2-2-0.5c0.4,0.8,0.1,1.7,1.2,2.3C4.2,23.4,5.2,23.9,5.2,23.4L5.2,23.4L5.2,23.4z M5.7,20.5c0.4,0-0.1-1.5-0.8-2.4
		c-0.5-0.7-1.3-0.4-1.9-0.8c0.3,0.8-0.2,1.7,0.8,2.5C4.7,20.3,5.6,20.9,5.7,20.5L5.7,20.5L5.7,20.5z M6.6,17.5C7,17.6,6.8,16,6.3,15
		c-0.4-0.7-1.2-0.6-1.7-1.1c0.1,0.8-0.5,1.6,0.3,2.6C5.6,17.2,6.4,18,6.6,17.5L6.6,17.5L6.6,17.5z M7.7,15c0.4,0.2,0.6-1.4,0.3-2.5
		c-0.2-0.8-1-0.9-1.4-1.5c-0.1,0.8-0.9,1.5-0.3,2.6C6.8,14.4,7.4,15.3,7.7,15L7.7,15L7.7,15z M9.3,12.8c0.3,0.2,0.8-1.2,0.8-2.2
		c0-0.8-0.7-1-0.9-1.7C8.9,9.7,8,10.1,8.4,11.2C8.6,12.1,8.9,13.1,9.3,12.8L9.3,12.8L9.3,12.8z M11.2,10.4c0.2,0.3,1-0.9,1.2-1.8
		C12.5,8,12,7.6,11.9,7c-0.4,0.6-1.2,0.7-1.2,1.8C10.8,9.7,10.8,10.5,11.2,10.4L11.2,10.4L11.2,10.4z M21.8,48.4
		c0.5,0.2,0.6-1.8,0.3-3.1c-0.3-1-1.2-1.1-1.8-1.8c-0.1,1-1,1.8-0.2,3.2C20.8,47.7,21.5,48.8,21.8,48.4L21.8,48.4L21.8,48.4z
		 M18.5,46.8c0.5,0.2,0.6-1.8,0.3-3.1c-0.3-1-1.2-1.1-1.8-1.8c-0.1,1-1,1.8-0.2,3.2C17.4,46.2,18.2,47.3,18.5,46.8L18.5,46.8
		L18.5,46.8z M15,44.1c0.5,0.2,0.8-1.7,0.6-3c-0.2-1-1.1-1.2-1.5-1.9c-0.2,1-1.2,1.7-0.6,3C14,43.4,14.6,44.5,15,44.1L15,44.1
		L15,44.1z M11.5,40.6c0.4,0.3,1.1-1.4,1.1-2.7c0-1-0.8-1.3-1-2.1c-0.4,0.9-1.5,1.3-1.1,2.7C10.7,39.8,11,40.9,11.5,40.6L11.5,40.6
		L11.5,40.6z M9.1,37.2c0.3,0.3,1.1-1.1,1.3-2.3c0.1-0.9-0.6-1.3-0.7-2c-0.4,0.8-1.5,1-1.3,2.3C8.5,36.3,8.7,37.4,9.1,37.2L9.1,37.2
		L9.1,37.2z M7.6,33.5c0.2,0.3,1.2-0.9,1.6-1.9c0.3-0.8-0.3-1.2-0.3-1.9c-0.5,0.6-1.5,0.7-1.6,1.9C7.1,32.6,7.1,33.6,7.6,33.5
		L7.6,33.5L7.6,33.5z M6.7,30c0.2,0.4,1.2-0.6,1.7-1.5c0.3-0.7-0.1-1.2,0-1.9c-0.6,0.5-1.5,0.4-1.7,1.6C6.5,29.1,6.3,30.1,6.7,30
		L6.7,30L6.7,30z M6.7,26.6c0.1,0.4,1.2-0.5,1.8-1.3c0.4-0.6,0-1.2,0.1-1.8C8,24,7.2,23.9,6.8,24.9C6.5,25.8,6.3,26.6,6.7,26.6
		L6.7,26.6L6.7,26.6z M7,23.1c0.1,0.4,1.3-0.3,1.9-1.1c0.5-0.6,0.1-1.2,0.4-1.7c-0.6,0.4-1.5,0.1-1.9,1.1C6.9,22.2,6.6,23,7,23.1
		L7,23.1L7,23.1z M7.5,20c0,0.4,1.3-0.2,2-0.8c0.5-0.5,0.3-1.1,0.5-1.6c-0.7,0.3-1.4-0.1-2,0.8C7.5,19.1,7.1,19.9,7.5,20L7.5,20
		L7.5,20z M8.7,16.9c0,0.3,1.2,0,1.9-0.5c0.5-0.4,0.4-1,0.7-1.4c-0.6,0.2-1.3-0.3-1.9,0.5C8.8,16.2,8.3,16.8,8.7,16.9L8.7,16.9
		L8.7,16.9z M10,14.5c-0.1,0.3,1.1,0.2,1.9-0.2c0.6-0.3,0.5-0.9,0.9-1.3c-0.6,0.1-1.2-0.4-1.9,0.2C10.3,13.8,9.7,14.3,10,14.5
		L10,14.5L10,14.5z M11.4,12.1c-0.1,0.3,1.1,0.4,1.9,0.1c0.6-0.2,0.6-0.8,1.1-1.1c-0.6,0-1.1-0.6-1.9-0.1
		C11.8,11.4,11.1,11.9,11.4,12.1L11.4,12.1L11.4,12.1z M13.6,10.1c-0.1,0.3,1,0.3,1.7,0.1c0.5-0.2,0.6-0.7,0.9-1
		c-0.6,0-1-0.5-1.7-0.1C13.9,9.5,13.4,9.9,13.6,10.1L13.6,10.1L13.6,10.1z M13.6,8.7c-0.3,0-0.2-0.6,0-1.3c0.2-0.8,0.9-0.7,1.3-1.1
		c-0.1,0.5,0.3,0.9,0,1.4C14.5,8.2,13.7,8.9,13.6,8.7L13.6,8.7L13.6,8.7z M15.5,7.9c-0.1,0.3,1.1,0.4,1.9,0.1C18,7.9,18,7.3,18.4,7
		c-0.6,0-1.1-0.6-1.9-0.1C15.8,7.3,15.2,7.7,15.5,7.9L15.5,7.9L15.5,7.9z"/>
</g>
<g id="Arrow_26">
</g>
</svg>
