<?xml version="1.0" encoding="utf-8"?>
<!-- Generator: Adobe Illustrator 22.1.0, SVG Export Plug-In . SVG Version: 6.00 Build 0)  -->
<svg version="1.1" id="Layer_1" xmlns="http://www.w3.org/2000/svg" xmlns:xlink="http://www.w3.org/1999/xlink" x="0px" y="0px"
	 viewBox="0 0 60 60" style="enable-background:new 0 0 60 60;" xml:space="preserve">
<style type="text/css">
	.st0{fill:#ED1C24;}
	.st1{display:none;fill:#ED1C24;}
	.st2{fill:#FFFFFF;}
	.st3{fill-rule:evenodd;clip-rule:evenodd;fill:#FFFFFF;}
	.st4{clip-path:url(#SVGID_2_);fill:#FFFFFF;}
	.st5{clip-path:url(#SVGID_2_);fill:#EA2128;}
	.st6{clip-path:url(#SVGID_4_);fill:#FFFFFF;}
	.st7{clip-path:url(#SVGID_4_);fill:#EA2128;}
	.st8{fill:#53964B;}
	.st9{fill:#7F7F7F;}
	.st10{fill:#FFFFFF;stroke:#FFFFFF;stroke-width:0.25;stroke-miterlimit:10;}
	.st11{fill:#FFFFFF;stroke:#FFFFFF;stroke-width:0.5;stroke-linecap:round;}
	.st12{clip-path:url(#SVGID_6_);}
	.st13{fill:#EA2128;}
	.st14{fill:none;stroke:#ED1C24;stroke-width:3;stroke-linecap:round;}
	.st15{fill:none;stroke:#7F7F7F;stroke-width:3;stroke-linecap:round;}
	.st16{fill:none;stroke:#ED1C24;stroke-width:3;stroke-miterlimit:10;}
	.st17{fill:none;stroke:#ED1C24;stroke-width:0.75;stroke-miterlimit:10;}
	.st18{fill:none;stroke:#ED1C24;stroke-width:1.6;stroke-miterlimit:10;}
	.st19{fill:none;stroke:#7F7F7F;stroke-width:3;stroke-miterlimit:10;}
	.st20{fill:none;stroke:#7F7F7F;stroke-width:0.75;stroke-miterlimit:10;}
	.st21{fill:none;stroke:#7F7F7F;stroke-width:1.6;stroke-miterlimit:10;}
	.st22{fill:#EC2127;}
	.st23{fill-rule:evenodd;clip-rule:evenodd;fill:none;stroke:#FFFFFF;stroke-miterlimit:10;}
	.st24{fill:none;stroke:#ED1C24;stroke-width:2.6;stroke-miterlimit:10;}
	.st25{fill:none;stroke:#7F7F7F;stroke-width:2.6;stroke-miterlimit:10;}
	.st26{fill:none;stroke:#FFFFFF;stroke-width:3;stroke-linecap:round;stroke-linejoin:round;stroke-miterlimit:10;}
	.st27{fill:#F5F6F6;}
	.st28{fill-rule:evenodd;clip-rule:evenodd;fill:none;stroke:#FFFFFF;stroke-width:1.6;stroke-miterlimit:10;}
</style>
<g id="Arrow_26">
</g>
<g>
	<path class="st28" d="M48.6,9.4l-7.6-6.8H14.2c-1.5,0-2.8,1.1-2.8,2.5v49.8c0,1.4,1.3,2.5,2.8,2.5h31.6c1.5,0,2.8-1.1,2.8-2.5V9.4
		L48.6,9.4z"/>
	<path class="st23" d="M16.3,45.3c0,1.9,1.5,3.4,3.4,3.4H23v-7.8h-6.7V45.3L16.3,45.3z M23.3,48.7h6.5V37.9H26
		c-1.5,0-2.7,1.2-2.7,2.7V48.7L23.3,48.7z M30.2,48.7h6.5v-8.2c0-1.5-1.2-2.7-2.7-2.7h-3.8V48.7L30.2,48.7z M37,48.7h3.2
		c1.9,0,3.4-1.5,3.4-3.4v-4.4H37V48.7L37,48.7z M43.7,40.5V27.2H37c0,1.7-1.4,3-3,3v7.3c1.7,0,3,1.4,3,3H43.7L43.7,40.5z M43.7,26.8
		v-4.5c0-1.9-1.5-3.4-3.4-3.4H37v7.9H43.7L43.7,26.8z M36.7,18.9h-6.5v11H34c1.5,0,2.7-1.2,2.7-2.7V18.9L36.7,18.9z M29.8,18.9h-6.5
		v8.3c0,1.5,1.2,2.7,2.7,2.7h3.8V18.9L29.8,18.9z M23,18.9h-3.2c-1.9,0-3.4,1.5-3.4,3.4v4.5H23V18.9L23,18.9z M16.3,27.2v13.3H23
		c0-1.7,1.4-3,3-3v-7.3c-1.7,0-3-1.4-3-3H16.3L16.3,27.2z M33.6,30.2H30h-3.6v7.3H30h3.6V30.2L33.6,30.2z"/>
</g>
</svg>
