<?xml version="1.0" encoding="utf-8"?>
<!-- Generator: Adobe Illustrator 22.1.0, SVG Export Plug-In . SVG Version: 6.00 Build 0)  -->
<svg version="1.1" id="Layer_1" xmlns="http://www.w3.org/2000/svg" xmlns:xlink="http://www.w3.org/1999/xlink" x="0px" y="0px"
	 viewBox="0 0 60 60" style="enable-background:new 0 0 60 60;" xml:space="preserve">
<style type="text/css">
	.st0{display:none;fill:#ED1C24;}
	.st1{fill:#FFFFFF;}
	.st2{fill-rule:evenodd;clip-rule:evenodd;fill:#FFFFFF;}
	.st3{clip-path:url(#SVGID_2_);fill:#FFFFFF;}
	.st4{clip-path:url(#SVGID_2_);fill:#EA2128;}
	.st5{clip-path:url(#SVGID_4_);fill:#FFFFFF;}
	.st6{clip-path:url(#SVGID_4_);fill:#EA2128;}
	.st7{fill:#53964B;}
	.st8{fill:#ED1C24;}
	.st9{fill:#7F7F7F;}
	.st10{fill:#FFFFFF;stroke:#FFFFFF;stroke-width:0.25;stroke-miterlimit:10;}
	.st11{fill:#FFFFFF;stroke:#FFFFFF;stroke-width:0.5;stroke-linecap:round;}
	.st12{clip-path:url(#SVGID_6_);}
	.st13{fill:#EA2128;}
	.st14{fill:none;stroke:#ED1C24;stroke-width:3;stroke-linecap:round;}
	.st15{fill:none;stroke:#7F7F7F;stroke-width:3;stroke-linecap:round;}
	.st16{fill:none;stroke:#ED1C24;stroke-width:3;stroke-miterlimit:10;}
	.st17{fill:none;stroke:#ED1C24;stroke-width:0.75;stroke-miterlimit:10;}
	.st18{fill:none;stroke:#ED1C24;stroke-width:1.6;stroke-miterlimit:10;}
	.st19{fill:none;stroke:#7F7F7F;stroke-width:3;stroke-miterlimit:10;}
	.st20{fill:none;stroke:#7F7F7F;stroke-width:0.75;stroke-miterlimit:10;}
	.st21{fill:none;stroke:#7F7F7F;stroke-width:1.6;stroke-miterlimit:10;}
	.st22{fill:#EC2127;}
	.st23{fill-rule:evenodd;clip-rule:evenodd;fill:none;stroke:#FFFFFF;stroke-miterlimit:10;}
	.st24{font-family:'Ooredoo-Heavy';}
	.st25{font-size:10.7866px;}
	.st26{fill:none;stroke:#ED1C24;stroke-width:2.6;stroke-miterlimit:10;}
	.st27{fill:none;stroke:#7F7F7F;stroke-width:2.6;stroke-miterlimit:10;}
	.st28{fill:none;stroke:#FFFFFF;stroke-width:3;stroke-linecap:round;stroke-linejoin:round;stroke-miterlimit:10;}
	.st29{fill:#F5F6F6;}
</style>
<g id="Arrow_26">
</g>
<g>
	<path class="st2" d="M9.6,20c2.3-0.7,4.6-1.3,6.9-1.8c2.3-0.5,4.6-0.9,6.9-1.3c-1.5,0.9-2.6,2.2-3.4,3.9c-0.7,1.7-1,3.7-0.8,5.7
		c0.3,2,1.1,3.8,2.2,5.1c1.1,1.3,2.6,2.3,4.2,2.6c-2.3,0.4-4.6,0.8-6.9,1.3c-2.3,0.5-4.6,1.1-6.9,1.7c-0.3,0.1-0.6,0.2-0.9,0.3
		c0-0.3-0.1-0.6-0.1-0.9c-0.2-1.5-1.7-2.4-3.4-1.9c-0.3,0.1-0.6,0.2-0.9,0.3c0-0.3-0.1-0.6-0.1-0.9c-0.2-1.4-0.4-2.8-0.5-4.1
		c-0.2-1.4-0.3-2.8-0.5-4.1c0-0.3-0.1-0.6-0.1-0.9c0.3-0.1,0.6-0.2,0.9-0.3c1.7-0.5,2.9-2.2,2.7-3.7c0-0.3-0.1-0.6-0.1-0.9
		C9,20.2,9.3,20.1,9.6,20L9.6,20z"/>
	<path class="st2" d="M28.4,16.2c2.3-0.2,4.7-0.4,7-0.5c2.4-0.1,4.7,0,7.1,0c0.3,0,0.6,0,1,0c0,0.3,0.1,0.6,0.1,0.8
		c0.2,1.5,1.8,2.8,3.5,2.9c0.3,0,0.7,0,1,0.1c0,0.3,0.1,0.6,0.1,0.8c0.2,1.4,0.4,2.7,0.5,4.1c0.2,1.4,0.4,2.7,0.5,4.1
		c0,0.3,0.1,0.6,0.1,0.8c-0.3,0-0.7,0-1-0.1c-1.7-0.1-3,1.1-2.8,2.6c0,0.3,0.1,0.6,0.1,0.8c-0.3,0-0.7,0-1,0c-2.4,0-4.7,0-7.1,0.1
		c-2.4,0.1-4.7,0.3-7,0.5c1.5-0.8,2.6-2,3.4-3.6c0.7-1.6,1.1-3.4,0.8-5.4c-0.3-2-1.1-3.8-2.2-5.3C31.5,17.8,30,16.7,28.4,16.2
		L28.4,16.2z"/>
	<path class="st23" d="M2.3,19.6c7.6-2.5,15.3-4.8,23.2-5.8c7.9-1,15.9-0.7,23.9-0.3c0.3,0,0.7,0.1,1,0.1c0,0.3,0.1,0.6,0.1,0.8
		c0.4,3.5,0.9,6.9,1.3,10.4c0.4,3.5,0.9,6.9,1.3,10.4c0,0.3,0.1,0.6,0.1,0.8c-0.3,0-0.7,0-1-0.1c-8-0.3-16-0.5-23.9,0.6
		c-7.9,1-15.6,3.2-23.2,5.5c-0.3,0.1-0.6,0.2-0.9,0.3c0-0.3-0.1-0.6-0.1-0.8c-0.4-3.5-0.9-6.9-1.3-10.4C2.4,27.7,2,24.2,1.5,20.7
		c0-0.3-0.1-0.6-0.1-0.8C1.7,19.8,2,19.7,2.3,19.6L2.3,19.6z"/>
	<path class="st23" d="M53.3,23.2c1.4,0.3,2.7,0.5,4.1,0.8l1.1,0.2v1.1v10v10v1.7L57,46.6c-3.8-0.7-7.7-1.3-11.6-1.7
		c-3.9-0.4-7.7-0.7-11.5-0.7c-3.8,0-7.7,0.3-11.5,0.7c-3.9,0.4-7.7,1-11.6,1.7l-1.6,0.3v-1.6v-2.6c3.7-1.1,7.5-2.1,11.2-3
		c2.7-0.6,5.5-1.1,8.3-1.5c3.7-0.5,7.5-0.7,11.3-0.8c3.9-0.1,7.7,0.1,11.6,0.2l3.6,0.2L53.3,23.2L53.3,23.2z"/>
	<text transform="matrix(0.9887 -0.1502 0.1502 0.9887 21.7883 30.1083)" class="st1 st24 st25">Ks</text>
</g>
</svg>
