<?xml version="1.0" encoding="utf-8"?>
<!-- Generator: Adobe Illustrator 22.1.0, SVG Export Plug-In . SVG Version: 6.00 Build 0)  -->
<svg version="1.1" id="Layer_1" xmlns="http://www.w3.org/2000/svg" xmlns:xlink="http://www.w3.org/1999/xlink" x="0px" y="0px"
	 viewBox="0 0 40 40" style="enable-background:new 0 0 40 40;" xml:space="preserve">
<style type="text/css">
	.st0{display:none;fill:#ED1C24;}
	.st1{fill:#FFFFFF;}
	.st2{fill-rule:evenodd;clip-rule:evenodd;fill:#FFFFFF;}
	.st3{clip-path:url(#SVGID_2_);fill:#FFFFFF;}
	.st4{clip-path:url(#SVGID_2_);fill:#EA2128;}
	.st5{clip-path:url(#SVGID_4_);fill:#FFFFFF;}
	.st6{clip-path:url(#SVGID_4_);fill:#EA2128;}
	.st7{fill:#53964B;}
	.st8{fill:#ED1C24;}
	.st9{fill:#7F7F7F;}
	.st10{fill:#FFFFFF;stroke:#FFFFFF;stroke-width:0.25;stroke-miterlimit:10;}
	.st11{fill:#FFFFFF;stroke:#FFFFFF;stroke-width:0.5;stroke-linecap:round;}
	.st12{clip-path:url(#SVGID_6_);}
	.st13{fill:#EA2128;}
	.st14{fill:none;stroke:#ED1C24;stroke-width:3;stroke-linecap:round;}
	.st15{fill:none;stroke:#7F7F7F;stroke-width:3;stroke-linecap:round;}
	.st16{fill:none;stroke:#ED1C24;stroke-width:3;stroke-miterlimit:10;}
	.st17{fill:none;stroke:#ED1C24;stroke-width:0.75;stroke-miterlimit:10;}
	.st18{fill:none;stroke:#ED1C24;stroke-width:1.6;stroke-miterlimit:10;}
	.st19{fill:none;stroke:#7F7F7F;stroke-width:3;stroke-miterlimit:10;}
	.st20{fill:none;stroke:#7F7F7F;stroke-width:0.75;stroke-miterlimit:10;}
	.st21{fill:none;stroke:#7F7F7F;stroke-width:1.6;stroke-miterlimit:10;}
	.st22{fill:#EC2127;}
	.st23{fill-rule:evenodd;clip-rule:evenodd;fill:none;stroke:#FFFFFF;stroke-miterlimit:10;}
	.st24{fill:none;stroke:#ED1C24;stroke-width:2.6;stroke-miterlimit:10;}
	.st25{fill:none;stroke:#7F7F7F;stroke-width:2.6;stroke-miterlimit:10;}
	.st26{fill:none;stroke:#FFFFFF;stroke-width:3;stroke-linecap:round;stroke-linejoin:round;stroke-miterlimit:10;}
	.st27{fill:#F5F6F6;}
</style>
<rect x="-44.8" y="-0.8" class="st0" width="223.4" height="41"/>
<g id="Arrow_26">
</g>
<g>
	<g id="XMLID_14_">
		<circle id="XMLID_16_" class="st22" cx="20" cy="20" r="19"/>
	</g>
	<circle id="XMLID_10_" class="st1" cx="20" cy="20" r="19"/>
	<g id="XMLID_1_">
		<path id="XMLID_7_" class="st22" d="M20,31c-1.5,0-3,0-4.5-0.1c-1.3,0-2.5-0.3-3.6-1c-1.5-0.9-2.4-2.2-2.6-3.9c-0.2-1-0.2-2-0.2-3
			c0-2.2,0-4.4,0-6.5c0-1.2,0.1-2.3,0.4-3.4c0.7-2.1,2.2-3.4,4.4-3.8c1-0.2,2-0.2,3-0.2c2.2,0,4.4,0,6.6,0c1.1,0,2.3,0.1,3.4,0.4
			c2.1,0.7,3.4,2.2,3.9,4.4c0.2,1,0.2,2,0.2,3c0,2.2,0,4.4,0,6.5c0,1.2-0.1,2.3-0.4,3.4c-0.7,2.1-2.2,3.4-4.4,3.8
			c-1,0.2-2,0.2-3,0.3C22.1,31,21,31,20,31C20,31,20,31,20,31z M29.1,19.8C29.1,19.8,29,19.8,29.1,19.8c0-0.9,0-1.7,0-2.6
			c0-0.8-0.1-1.7-0.1-2.5c-0.2-1.9-1.3-3.1-3.1-3.5c-1-0.2-2-0.2-3-0.2c-1.8,0-3.7,0-5.5,0c-0.9,0-1.9,0-2.8,0.2
			c-1.6,0.2-2.7,1.2-3.1,2.7c-0.1,0.5-0.2,1-0.2,1.6c0,2-0.1,4-0.1,6c0,1.3,0,2.5,0.1,3.8c0.2,1.9,1.3,3.2,3.1,3.5
			c1,0.2,2,0.2,3,0.2c1.8,0,3.7,0,5.5,0c0.9,0,1.7-0.1,2.6-0.1c0.8-0.1,1.5-0.3,2.2-0.8c1-0.8,1.4-1.9,1.5-3.2
			C29,23.2,29,21.5,29.1,19.8z"/>
		<path id="XMLID_4_" class="st22" d="M20,25.6c-3.1,0-5.6-2.5-5.6-5.7c0-3.1,2.5-5.6,5.7-5.6c3.1,0,5.6,2.6,5.6,5.7
			C25.7,23.1,23.1,25.6,20,25.6z M20,23.7c2,0,3.7-1.7,3.7-3.7c0-2-1.7-3.7-3.7-3.7c-2,0-3.7,1.7-3.7,3.7C16.3,22,18,23.7,20,23.7z"
			/>
		<path id="XMLID_3_" class="st22" d="M25.9,12.8c0.7,0,1.3,0.6,1.3,1.4c0,0.7-0.6,1.3-1.3,1.3c-0.7,0-1.3-0.6-1.3-1.3
			C24.6,13.4,25.2,12.8,25.9,12.8z"/>
	</g>
</g>
</svg>
