<?xml version="1.0" encoding="utf-8"?>
<!-- Generator: Adobe Illustrator 23.0.2, SVG Export Plug-In . SVG Version: 6.00 Build 0)  -->
<svg version="1.1" id="Capa_1" xmlns="http://www.w3.org/2000/svg" xmlns:xlink="http://www.w3.org/1999/xlink" x="0px" y="0px"
	 viewBox="0 0 316.8 316.8" style="enable-background:new 0 0 316.8 316.8;" xml:space="preserve">
<style type="text/css">
	.st0{fill:#FFFFFF;}
</style>
<g>
	<path class="st0" d="M130.8,213.3l0.4-0.8c0.9-1.9,1.7-3.9,2.5-5.9c0.9-2.2,1.7-4.4,2.4-6.6c0.6-1.8,1.1-3.5,1.6-5.3
		c0.8-2.7,1.5-5.5,2.1-8.3c0.2-1,0.4-1.9,0.6-2.9l0.1-0.7c0.3-1.7,0.6-3.4,0.9-5.1l0.1-0.5c0,0,0,0,0-0.1l0.1-0.5
		c0.2-1.4,0.4-2.8,0.6-4.3l0.4-5c0.4-6.1,0.4-12.4-0.1-18.5l-0.1-1.8l-0.1-0.8l-0.2-2.1c-0.2-1.9-0.5-3.8-0.8-5.7l-0.1-0.6
		c-0.2-1.3-0.4-2.6-0.7-3.8c-0.3-1.4-0.5-2.8-0.8-4.2c-0.6-2.7-1.3-5.4-2-7.9c-0.6-2.1-1.2-4.1-1.9-6l-0.5-1.3
		c-1.4-4-3.1-8.1-4.9-12l-0.5-1l0,0C108.2,56.2,61.7,26.8,11.3,26.8c-1.2,0-2.3,0.1-3.4,0.1l-8,0.3l0,262.2l7.9,0.4
		c1.2,0.1,2.3,0.1,3.5,0.1C62.5,290,109.4,259.9,130.8,213.3z M12.7,39.7C58,40.3,99.5,67,118.6,107.8l0.5,1.3l0.1,0.2
		c1.5,3.2,2.8,6.5,4,9.8l0.4,1.1c0.6,1.8,1.2,3.6,1.7,5.5c0.7,2.3,1.3,4.7,1.8,7.1c0.3,1.2,0.5,2.5,0.8,3.8c0.2,1,0.4,2,0.5,3
		l0.1,0.5c0.3,1.8,0.6,3.7,0.8,5.5l0.4,4.2c0.4,5.5,0.5,10.8,0,17.1l-0.3,4.1c-0.1,1-0.3,2-0.4,3.2l-0.2,1.5
		c-0.2,1.5-0.5,3.1-0.8,4.6l-0.1,0.7c-0.2,0.9-0.3,1.7-0.5,2.5c-0.6,2.5-1.2,5-1.9,7.5c-0.5,1.6-1,3.3-1.5,4.8c-0.7,2-1.4,4-2.2,5.9
		c-0.7,1.9-1.5,3.7-2.4,5.6l-0.1,0.3c-19.1,41.7-60.8,68.8-106.5,69.3L12.7,39.7L12.7,39.7z M159.1,126.6c-0.4,1-0.8,2-1.1,3
		l-0.8,2.1c-0.3,0.8-0.6,1.6-0.9,2.4c-2.4,7.7-3.6,15.7-3.7,23.8v0.6c0,2.8,0.1,5.6,0.4,8.3c0.1,0.9,0.2,1.8,0.4,2.7l0.3,2
		c0.1,1.1,0.3,2.3,0.5,3.4c0.2,0.8,0.4,1.6,0.6,2.4l0.6,2.2c0.3,1.1,0.5,2.2,0.9,3.2c0.2,0.7,0.5,1.3,0.7,2l0.6,1.8
		c0.4,1.3,0.9,2.5,1.4,3.8c0.2,0.5,0.4,1,0.7,1.5l0.3,0.6c0.8,1.7,1.6,3.5,2.5,5.2l0.7,1.1c1.1,1.9,2.2,3.9,3.6,5.8
		c0.7,1,1.4,2,2.2,2.9l2.6,3.3c15.7,18.9,38.6,29.8,62.5,29.8h0.7c45.2,0,82-36.8,82-82c0-43.2-33.8-79.1-76.9-81.8l-1.1-0.1
		c-1.4-0.1-2.7-0.2-4.1-0.2C201.6,76.5,172,96.2,159.1,126.6z M237.9,89.6l1.2,0.1c36.3,2.3,64.8,32.5,64.8,68.9
		c0,38.1-31,69.2-68.6,69.2h-0.7c-20.6,0-40-9.2-53.3-25.2l-2.3-3.1c-0.6-0.7-1.1-1.4-1.7-2.2c-1-1.5-2-3.2-2.9-4.8l-0.6-0.9
		c-0.7-1.4-1.4-2.8-2.1-4.4l-0.8-1.7c-0.4-1-0.8-2-1.1-3l-0.8-2.1c-0.2-0.4-0.3-0.8-0.4-1.2c-0.2-0.8-0.4-1.6-0.6-2.4l-0.7-2.6
		c-0.1-0.6-0.3-1.1-0.4-1.6c-0.2-0.9-0.3-1.7-0.4-2.6l-0.4-2.4c-0.1-0.6-0.2-1.2-0.3-1.8c-0.2-2.1-0.3-4.3-0.4-6.5v-0.6l0,0
		c0-7,1.1-13.9,3.1-20.6c0.2-0.6,0.4-1.1,0.6-1.7l0.9-2.4c0.3-0.8,0.5-1.5,0.8-2.2c11-25.8,36-42.4,63.9-42.4
		C235.8,89.4,236.8,89.5,237.9,89.6z"/>
</g>
</svg>
