<?xml version="1.0" encoding="utf-8"?>
<!-- Generator: Adobe Illustrator 22.1.0, SVG Export Plug-In . SVG Version: 6.00 Build 0)  -->
<svg version="1.1" id="Layer_1" xmlns="http://www.w3.org/2000/svg" xmlns:xlink="http://www.w3.org/1999/xlink" x="0px" y="0px"
	 viewBox="0 0 60 60" style="enable-background:new 0 0 60 60;" xml:space="preserve">
<style type="text/css">
	.st0{display:none;fill:#ED1C24;}
	.st1{fill:#FFFFFF;}
	.st2{fill-rule:evenodd;clip-rule:evenodd;fill:#FFFFFF;}
	.st3{clip-path:url(#SVGID_2_);fill:#FFFFFF;}
	.st4{clip-path:url(#SVGID_2_);fill:#EA2128;}
	.st5{clip-path:url(#SVGID_4_);fill:#FFFFFF;}
	.st6{clip-path:url(#SVGID_4_);fill:#EA2128;}
	.st7{fill:#53964B;}
	.st8{fill:#ED1C24;}
	.st9{fill:#7F7F7F;}
	.st10{fill:#FFFFFF;stroke:#FFFFFF;stroke-width:0.25;stroke-miterlimit:10;}
	.st11{fill:#FFFFFF;stroke:#FFFFFF;stroke-width:0.5;stroke-linecap:round;}
	.st12{clip-path:url(#SVGID_6_);}
	.st13{fill:#EA2128;}
	.st14{fill:none;stroke:#ED1C24;stroke-width:3;stroke-linecap:round;}
	.st15{fill:none;stroke:#7F7F7F;stroke-width:3;stroke-linecap:round;}
	.st16{fill:none;stroke:#ED1C24;stroke-width:3;stroke-miterlimit:10;}
	.st17{fill:none;stroke:#ED1C24;stroke-width:0.75;stroke-miterlimit:10;}
	.st18{fill:none;stroke:#ED1C24;stroke-width:1.6;stroke-miterlimit:10;}
	.st19{fill:none;stroke:#7F7F7F;stroke-width:3;stroke-miterlimit:10;}
	.st20{fill:none;stroke:#7F7F7F;stroke-width:0.75;stroke-miterlimit:10;}
	.st21{fill:none;stroke:#7F7F7F;stroke-width:1.6;stroke-miterlimit:10;}
	.st22{fill:#EC2127;}
	.st23{fill-rule:evenodd;clip-rule:evenodd;fill:none;stroke:#FFFFFF;stroke-miterlimit:10;}
	.st24{fill:none;stroke:#ED1C24;stroke-width:2.6;stroke-miterlimit:10;}
	.st25{fill:none;stroke:#7F7F7F;stroke-width:2.6;stroke-miterlimit:10;}
	.st26{fill:none;stroke:#FFFFFF;stroke-width:3;stroke-linecap:round;stroke-linejoin:round;stroke-miterlimit:10;}
	.st27{fill:#F5F6F6;}
</style>
<g id="Arrow_26">
</g>
<g>
	<g>
		<polyline class="st8" points="29.5,24.9 29.5,46.3 54.2,34.9 55.3,28.2 50.5,19.2 44.9,19.8 		"/>
		<polyline class="st8" points="29.5,15.2 29.5,23.1 46.6,16.4 39.6,10.3 		"/>
		<rect x="2.1" y="5.7" class="st8" width="25.5" height="48.6"/>
		<rect x="2.1" y="5.7" class="st8" width="25.5" height="48.6"/>
		<path class="st1" d="M29.5,27.5l16.3-6.3l1.4,0.5c0,0.1,0,0.3,0.1,0.4c0.4,1,1.6,1.5,2.7,1.1c0.1-0.1,0.2-0.1,0.4-0.2l1.4,0.5
			l2.3,6l-0.7,1.3c-0.1,0-0.3,0-0.4,0.1c-1.1,0.4-1.7,1.6-1.3,2.6c0,0.1,0.1,0.2,0.2,0.3l-0.7,1.3l-17.4,6.7l-1.4-0.5
			c0-0.1,0-0.3-0.1-0.4c-0.4-1-1.6-1.5-2.7-1.1c-0.1,0-0.2,0.1-0.2,0.1v6.2L59,34.8l-7.2-18.6l-22.3,8.6V27.5z"/>
		<path class="st1" d="M30.1,21.8c-0.2,0.2-0.4,0.3-0.5,0.5v0.8l5.7-2.2C33.6,20.2,31.6,20.5,30.1,21.8"/>
		<path class="st1" d="M32.1,36.7c1.1-0.4,1.7-1.6,1.3-2.6c-0.4-1-1.6-1.5-2.7-1.1c-0.5,0.2-0.9,0.5-1.1,0.9V36
			C30,36.8,31.1,37.1,32.1,36.7"/>
		<path class="st1" d="M49.1,30.1c1.1-0.4,1.7-1.6,1.3-2.6c-0.4-1-1.6-1.5-2.7-1.1C46.6,26.8,46,28,46.4,29
			C46.8,30,48,30.5,49.1,30.1"/>
		<path class="st1" d="M29.5,18.4l5.6-4.8l1.5,0.1c0.1,0.1,0.1,0.2,0.2,0.3c0.7,0.8,2,0.9,2.9,0.1c0.1-0.1,0.2-0.2,0.3-0.3l1.5,0.1
			l3,3.5l2.6-1l-8-9.3l-9.6,8.2V18.4z"/>
		<path class="st1" d="M41.6,18c-0.7-0.8-2-0.9-2.9-0.1c-0.6,0.5-0.8,1.3-0.7,1.9l3.9-1.5C41.7,18.2,41.6,18.1,41.6,18"/>
		<path class="st1" d="M25.8,4.3h-22C2.3,4.3,1,5.5,1,7.1v45.9c0,1.5,1.3,2.8,2.8,2.8h22c1.5,0,2.8-1.3,2.8-2.8V7.1
			C28.6,5.5,27.3,4.3,25.8,4.3 M12.5,6.5c0-0.1,0.1-0.2,0.2-0.2h4.1C17,6.3,17,6.4,17,6.5v0.2C17,6.9,17,7,16.9,7h-4.1
			c-0.1,0-0.2-0.1-0.2-0.2V6.5z M17,53.1c0,0.2-0.1,0.3-0.3,0.3h-3.9c-0.2,0-0.3-0.1-0.3-0.3v-1.1c0-0.2,0.1-0.3,0.3-0.3h3.9
			c0.2,0,0.3,0.1,0.3,0.3V53.1z M27.3,49.8H2.2V9.1h25.1V49.8z"/>
		<path class="st1" d="M44.6,29.7c-0.9-2.4-3.8-3.5-6.3-2.5c-2.6,1-3.9,3.7-3,6.1c0.9,2.4,3.7,3.5,6.3,2.5
			C44.2,34.8,45.6,32.1,44.6,29.7 M40.4,33.5l-1.7-1.1l-0.3,0.7l0.4,1l-0.4,0.1l-1.6-4.2l0.4-0.1l1,2.7l1-2.3l0.5-0.2l-0.8,1.9
			l2.1,1.2L40.4,33.5z M43.3,31.9c0,0.1-0.1,0.3-0.1,0.4c-0.1,0.1-0.2,0.2-0.3,0.3c-0.1,0.1-0.2,0.2-0.4,0.2c-0.1,0-0.2,0.1-0.3,0.1
			c-0.1,0-0.2,0-0.4,0.1c-0.1,0-0.2,0-0.4,0c-0.1,0-0.3,0-0.4,0l0.1-0.4c0.2,0,0.4,0,0.6,0c0.2,0,0.4-0.1,0.6-0.1
			c0.1,0,0.2-0.1,0.2-0.1c0.1-0.1,0.1-0.1,0.2-0.2c0-0.1,0.1-0.1,0.1-0.2c0-0.1,0-0.1,0-0.2l0,0c0-0.1-0.1-0.1-0.1-0.2
			c-0.1,0-0.1-0.1-0.2-0.1c-0.1,0-0.2,0-0.3,0c-0.1,0-0.2,0-0.3,0c-0.1,0-0.3,0-0.4,0c-0.1,0-0.3,0-0.4,0c-0.1,0-0.2-0.1-0.3-0.1
			c-0.1-0.1-0.2-0.2-0.2-0.3l0,0c0-0.1-0.1-0.3,0-0.4c0-0.1,0.1-0.2,0.1-0.4c0.1-0.1,0.2-0.2,0.3-0.3c0.1-0.1,0.2-0.2,0.4-0.2l0,0
			c0.2-0.1,0.3-0.1,0.6-0.1c0.2,0,0.4,0,0.6,0L42.3,30c-0.2,0-0.3,0-0.5,0c-0.2,0-0.3,0.1-0.5,0.1c-0.1,0-0.2,0.1-0.2,0.1
			c-0.1,0-0.1,0.1-0.2,0.2c0,0.1-0.1,0.1-0.1,0.2c0,0.1,0,0.1,0,0.2l0,0c0,0.1,0.1,0.1,0.1,0.1c0.1,0,0.1,0.1,0.2,0.1
			c0.1,0,0.2,0,0.3,0c0.1,0,0.2,0,0.3,0c0.1,0,0.3,0,0.4,0c0.1,0,0.3,0,0.4,0c0.1,0,0.2,0.1,0.3,0.1c0.1,0.1,0.2,0.2,0.2,0.3l0,0
			C43.3,31.6,43.3,31.8,43.3,31.9"/>
	</g>
	<g>
		<defs>
			<rect id="SVGID_5_" x="3.9" y="10.5" width="23.7" height="39.2"/>
		</defs>
		<clipPath id="SVGID_2_">
			<use xlink:href="#SVGID_5_"  style="overflow:visible;"/>
		</clipPath>
		<g style="clip-path:url(#SVGID_2_);">
			<circle class="st1" cx="21.6" cy="26.3" r="11.6"/>
			<circle class="st1" cx="12.1" cy="41.2" r="6.2"/>
		</g>
	</g>
</g>
</svg>
