<?xml version="1.0" encoding="utf-8"?>
<!-- Generator: Adobe Illustrator 22.1.0, SVG Export Plug-In . SVG Version: 6.00 Build 0)  -->
<svg version="1.1" id="Layer_1" xmlns="http://www.w3.org/2000/svg" xmlns:xlink="http://www.w3.org/1999/xlink" x="0px" y="0px"
	 viewBox="0 0 60 60" style="enable-background:new 0 0 60 60;" xml:space="preserve">
<style type="text/css">
	.st0{display:none;fill:#ED1C24;}
	.st1{fill:#FFFFFF;}
	.st2{fill-rule:evenodd;clip-rule:evenodd;fill:#FFFFFF;}
	.st3{clip-path:url(#SVGID_2_);fill:#FFFFFF;}
	.st4{clip-path:url(#SVGID_2_);fill:#EA2128;}
	.st5{clip-path:url(#SVGID_4_);fill:#FFFFFF;}
	.st6{clip-path:url(#SVGID_4_);fill:#EA2128;}
	.st7{fill:#53964B;}
	.st8{fill:#ED1C24;}
	.st9{fill:#7F7F7F;}
	.st10{fill:#FFFFFF;stroke:#FFFFFF;stroke-width:0.25;stroke-miterlimit:10;}
	.st11{fill:#FFFFFF;stroke:#FFFFFF;stroke-width:0.5;stroke-linecap:round;}
	.st12{clip-path:url(#SVGID_6_);}
	.st13{fill:#EA2128;}
	.st14{fill:none;stroke:#ED1C24;stroke-width:3;stroke-linecap:round;}
	.st15{fill:none;stroke:#7F7F7F;stroke-width:3;stroke-linecap:round;}
	.st16{fill:none;stroke:#ED1C24;stroke-width:3;stroke-miterlimit:10;}
	.st17{fill:none;stroke:#ED1C24;stroke-width:0.75;stroke-miterlimit:10;}
	.st18{fill:none;stroke:#ED1C24;stroke-width:1.6;stroke-miterlimit:10;}
	.st19{fill:none;stroke:#7F7F7F;stroke-width:3;stroke-miterlimit:10;}
	.st20{fill:none;stroke:#7F7F7F;stroke-width:0.75;stroke-miterlimit:10;}
	.st21{fill:none;stroke:#7F7F7F;stroke-width:1.6;stroke-miterlimit:10;}
	.st22{fill:#EC2127;}
	.st23{fill-rule:evenodd;clip-rule:evenodd;fill:none;stroke:#FFFFFF;stroke-miterlimit:10;}
	.st24{fill:none;stroke:#ED1C24;stroke-width:2.6;stroke-miterlimit:10;}
	.st25{fill:none;stroke:#7F7F7F;stroke-width:2.6;stroke-miterlimit:10;}
	.st26{fill:none;stroke:#FFFFFF;stroke-width:3;stroke-linecap:round;stroke-linejoin:round;stroke-miterlimit:10;}
	.st27{fill:#F5F6F6;}
</style>
<g id="Arrow_26">
</g>
<g>
	<defs>
		<path id="SVGID_3_" d="M14.5,2C8.3,2,3.1,6.5,2.1,12.4v35.2c1,5.5,5.5,9.8,11.2,10.4h33.2c6.4-0.6,11.4-6,11.4-12.6V14.6
			c0-7-5.6-12.6-12.6-12.6H14.5z"/>
	</defs>
	<clipPath id="SVGID_2_">
		<use xlink:href="#SVGID_3_"  style="overflow:visible;"/>
	</clipPath>
	<path class="st3" d="M58,54.8c0,1.9-1.5,3.4-3.4,3.4H5.1c-1.9,0-3.4-1.5-3.4-3.4V5.3c0-1.9,1.5-3.4,3.4-3.4h49.5
		c1.9,0,3.4,1.5,3.4,3.4V54.8z"/>
	<path class="st4" d="M58.7,0.7c9.2,9.2,9.2,24.1,0,33.3c-9.2,9.2-24.1,9.2-33.3,0c-9.2-9.2-9.2-24.1,0-33.3
		C34.6-8.5,49.5-8.5,58.7,0.7"/>
	<path class="st4" d="M8.8,50.6c-4.6-4.6-4.6-12,0-16.6c4.6-4.6,12-4.6,16.6,0c4.6,4.6,4.6,12,0,16.6C20.9,55.2,13.4,55.2,8.8,50.6"
		/>
	<use xlink:href="#SVGID_3_"  style="overflow:visible;fill:none;stroke:#FFFFFF;stroke-miterlimit:10;"/>
</g>
</svg>
