<?xml version="1.0" encoding="utf-8"?>
<!-- Generator: Adobe Illustrator 22.1.0, SVG Export Plug-In . SVG Version: 6.00 Build 0)  -->
<svg version="1.1" id="Layer_1" xmlns="http://www.w3.org/2000/svg" xmlns:xlink="http://www.w3.org/1999/xlink" x="0px" y="0px"
	 viewBox="0 0 40 40" style="enable-background:new 0 0 40 40;" xml:space="preserve">
<style type="text/css">
	.st0{display:none;fill:#ED1C24;}
	.st1{fill:#FFFFFF;}
	.st2{fill-rule:evenodd;clip-rule:evenodd;fill:#FFFFFF;}
	.st3{clip-path:url(#SVGID_2_);fill:#FFFFFF;}
	.st4{clip-path:url(#SVGID_2_);fill:#EA2128;}
	.st5{clip-path:url(#SVGID_4_);fill:#FFFFFF;}
	.st6{clip-path:url(#SVGID_4_);fill:#EA2128;}
	.st7{fill:#53964B;}
	.st8{fill:#ED1C24;}
	.st9{fill:#7F7F7F;}
	.st10{fill:#FFFFFF;stroke:#FFFFFF;stroke-width:0.25;stroke-miterlimit:10;}
	.st11{fill:#FFFFFF;stroke:#FFFFFF;stroke-width:0.5;stroke-linecap:round;}
	.st12{clip-path:url(#SVGID_6_);}
	.st13{fill:#EA2128;}
	.st14{fill:none;stroke:#ED1C24;stroke-width:3;stroke-linecap:round;}
	.st15{fill:none;stroke:#7F7F7F;stroke-width:3;stroke-linecap:round;}
	.st16{fill:none;stroke:#ED1C24;stroke-width:3;stroke-miterlimit:10;}
	.st17{fill:none;stroke:#ED1C24;stroke-width:0.75;stroke-miterlimit:10;}
	.st18{fill:none;stroke:#ED1C24;stroke-width:1.6;stroke-miterlimit:10;}
	.st19{fill:none;stroke:#7F7F7F;stroke-width:3;stroke-miterlimit:10;}
	.st20{fill:none;stroke:#7F7F7F;stroke-width:0.75;stroke-miterlimit:10;}
	.st21{fill:none;stroke:#7F7F7F;stroke-width:1.6;stroke-miterlimit:10;}
	.st22{fill:#EC2127;}
	.st23{fill-rule:evenodd;clip-rule:evenodd;fill:none;stroke:#FFFFFF;stroke-miterlimit:10;}
	.st24{fill:none;stroke:#ED1C24;stroke-width:2.6;stroke-miterlimit:10;}
	.st25{fill:none;stroke:#7F7F7F;stroke-width:2.6;stroke-miterlimit:10;}
	.st26{fill:none;stroke:#FFFFFF;stroke-width:3;stroke-linecap:round;stroke-linejoin:round;stroke-miterlimit:10;}
	.st27{fill:#F5F6F6;}
</style>
<rect x="-177.2" y="-0.3" class="st0" width="223.4" height="41"/>
<g id="Arrow_26">
</g>
<g>
	<g id="XMLID_11_">
		<circle id="XMLID_12_" class="st1" cx="20" cy="20" r="19"/>
	</g>
	<g>
		<path class="st22" d="M29.8,21.5c-0.6,5.2-4.3,5.5-5,5.7c-0.3,0.1-3,0.8-6.4,0.6l-3.7,4.1l0-4.7l0,0c-4.9-1.4-4.8-6.6-4.7-9.4
			c0.1-2.8,0.6-5,2.1-6.5c2.7-2.5,8.3-2.1,8.3-2.1c4.7,0,6.9,1.5,7.5,2C29.6,12.6,30.4,16.2,29.8,21.5 M29.1,9.8
			c-0.6-0.6-3.1-2.4-8.7-2.5c0,0-6.5-0.4-9.7,2.6c-1.8,1.8-2.4,4.5-2.5,7.8c-0.1,3.3-0.2,9.5,5.7,11.1l0,0l0,2.6c0,0,0,1,0.6,1.2
			c0.8,0.3,1.3-0.5,2-1.4c0.4-0.5,1-1.1,1.4-1.7c4,0.3,7-0.4,7.4-0.6c0.8-0.3,5.3-0.9,6.1-7C32.3,15.6,31.1,11.6,29.1,9.8"/>
		<path class="st22" d="M25.6,22.3c0,0-0.7-0.6-1.1-0.9c-0.3-0.3-0.9-0.6-1.2-0.8c-0.5-0.3-1.1-0.1-1.3,0.2l-0.5,0.6
			c-0.2,0.3-0.6,0.3-0.7,0.2c-0.7-0.2-1.5-0.6-2.2-1.4c-0.8-0.8-1.3-1.5-1.4-2.4l0-0.1c0-0.3,0-0.5,0.1-0.7l0,0c0.3-0.3,0.9-0.7,1-1
			c0.2-0.6-0.8-1.9-0.9-2.1c0,0-0.7-1-1-1.2c-0.3-0.2-0.7-0.4-1.2-0.1l0,0c-1.3,0.9-1.8,1.4-1.6,2.1l0.1,0.3
			c0.7,2.1,1.9,4.2,3.8,6.2c1.9,1.9,3.9,3.1,5.8,3.9c0.5,0.2,1,0,1.6-0.4l0,0c0.4-0.4,0.8-0.8,1-1.3l0,0
			C26,23.1,25.9,22.6,25.6,22.3"/>
		<path class="st22" d="M22.5,17.8c-0.1,0-0.1-0.1-0.1-0.1c0-0.5-0.2-0.9-0.4-1.2c-0.3-0.3-0.6-0.4-1.1-0.4c-0.1,0-0.1-0.1-0.1-0.2
			c0-0.1,0.1-0.1,0.2-0.1c0.6,0,1,0.2,1.3,0.5c0.3,0.3,0.5,0.8,0.5,1.4C22.6,17.7,22.6,17.8,22.5,17.8L22.5,17.8"/>
		<path class="st22" d="M23.9,18.3L23.9,18.3c-0.1,0-0.1-0.1-0.1-0.2c0-1-0.3-1.9-0.9-2.6c-0.3-0.3-0.7-0.6-1.1-0.8
			c-0.4-0.2-0.9-0.3-1.5-0.4c-0.1,0-0.1-0.1-0.1-0.2c0-0.1,0.1-0.1,0.2-0.1c1.2,0.1,2.1,0.5,2.8,1.2c0.7,0.7,1,1.7,1,2.8
			C24.1,18.2,24,18.3,23.9,18.3"/>
		<path class="st22" d="M25.4,18.9c-0.1,0-0.1-0.1-0.1-0.2c0-0.9-0.1-1.7-0.4-2.4c-0.3-0.7-0.7-1.3-1.2-1.8
			c-0.5-0.5-1.1-0.9-1.7-1.2c-0.6-0.3-1.4-0.4-2.1-0.4c-0.1,0-0.1-0.1-0.1-0.2c0-0.1,0.1-0.2,0.1-0.2h0c1.6,0,3,0.6,4.1,1.7
			c0.5,0.5,1,1.2,1.2,1.9c0.3,0.7,0.4,1.6,0.4,2.5C25.6,18.8,25.5,18.9,25.4,18.9L25.4,18.9z"/>
	</g>
</g>
</svg>
